<svg width="15" height="14" viewBox="0 0 15 14" fill="none" xmlns="http://www.w3.org/2000/svg">
<path d="M2.78211 5.3277C3.02254 4.64701 3.41285 4.0069 3.96241 3.46047C5.91395 1.50893 9.077 1.50893 11.0285 3.46047L11.5625 3.99753H9.99188C9.43921 3.99753 8.99269 4.44405 8.99269 4.99672C8.99269 5.5494 9.43921 5.99591 9.99188 5.99591H13.973H13.9855C14.5382 5.99591 14.9847 5.5494 14.9847 4.99672V0.999969C14.9847 0.447293 14.5382 0.000780664 13.9855 0.000780664C13.4328 0.000780664 12.9863 0.447293 12.9863 0.999969V2.59867L12.4399 2.04912C9.70774 -0.683039 5.28009 -0.683039 2.54793 2.04912C1.78605 2.811 1.2365 3.70714 0.899269 4.66574C0.715044 5.18719 0.989821 5.75548 1.50815 5.93971C2.02648 6.12393 2.59789 5.84915 2.78211 5.33083V5.3277ZM0.718167 8.03488C0.562043 8.08172 0.412165 8.16602 0.290389 8.29092C0.165491 8.41582 0.0811841 8.5657 0.0374696 8.72807C0.0281022 8.76554 0.0187348 8.80613 0.0124898 8.84672C0.00312245 8.8998 0 8.95288 0 9.00597V12.9902C0 13.5429 0.446512 13.9894 0.999188 13.9894C1.55186 13.9894 1.99838 13.5429 1.99838 12.9902V11.3946L2.54793 11.9411C5.28009 14.6701 9.70774 14.6701 12.4368 11.9411C13.1987 11.1792 13.7513 10.2831 14.0886 9.32758C14.2728 8.80613 13.998 8.23784 13.4797 8.05361C12.9613 7.86939 12.3899 8.14417 12.2057 8.66249C11.9653 9.34319 11.575 9.9833 11.0254 10.5297C9.07388 12.4813 5.91082 12.4813 3.95928 10.5297L3.95616 10.5266L3.42222 9.99266H4.99594C5.54862 9.99266 5.99513 9.54615 5.99513 8.99347C5.99513 8.4408 5.54862 7.99429 4.99594 7.99429H1.01168C0.961719 7.99429 0.911759 7.99741 0.8618 8.00365C0.81184 8.0099 0.765004 8.01927 0.718167 8.03488Z" fill="black"/>
</svg>
