<svg width="18" height="15" viewBox="0 0 18 15" fill="none" xmlns="http://www.w3.org/2000/svg">
<path d="M17.267 5.30358V11.1729C17.267 11.3285 17.2051 11.4778 17.0951 11.5879C16.985 11.6979 16.8357 11.7598 16.6801 11.7598H14.3323V14.1075C14.3323 14.2632 14.2705 14.4124 14.1604 14.5225C14.0504 14.6326 13.9011 14.6944 13.7454 14.6944H4.35457C4.19891 14.6944 4.04962 14.6326 3.93955 14.5225C3.82948 14.4124 3.76765 14.2632 3.76765 14.1075V11.7598H1.41994C1.26427 11.7598 1.11499 11.6979 1.00491 11.5879C0.894845 11.4778 0.833008 11.3285 0.833008 11.1729V5.30358C0.833008 4.33294 1.66645 3.54279 2.69137 3.54279H3.76765V1.19508C3.76765 1.03942 3.82948 0.890132 3.93955 0.780062C4.04962 0.669991 4.19891 0.608154 4.35457 0.608154H13.7454C13.9011 0.608154 14.0504 0.669991 14.1604 0.780062C14.2705 0.890132 14.3323 1.03942 14.3323 1.19508V3.54279H15.4086C16.4335 3.54279 17.267 4.33294 17.267 5.30358ZM4.9415 3.54279H13.1585V1.78201H4.9415V3.54279ZM13.1585 9.999H4.9415V13.5206H13.1585V9.999ZM14.3323 6.7709C14.3323 6.59677 14.2807 6.42656 14.184 6.28178C14.0872 6.137 13.9497 6.02415 13.7889 5.95752C13.628 5.89088 13.451 5.87345 13.2802 5.90742C13.1094 5.94139 12.9525 6.02524 12.8294 6.14836C12.7063 6.27149 12.6224 6.42836 12.5885 6.59914C12.5545 6.76992 12.5719 6.94694 12.6386 7.10781C12.7052 7.26868 12.8181 7.40618 12.9628 7.50291C13.1076 7.59965 13.2778 7.65129 13.452 7.65129C13.6854 7.65129 13.9094 7.55853 14.0745 7.39343C14.2396 7.22832 14.3323 7.00439 14.3323 6.7709Z" fill="#E5E7EB"/>
</svg>
