<svg width="21" height="15" viewBox="0 0 21 15" fill="none" xmlns="http://www.w3.org/2000/svg">
<path d="M20.0182 5.18515V10.7828C20.0182 10.9312 19.944 11.0736 19.812 11.1786C19.6801 11.2836 19.5011 11.3426 19.3145 11.3426H16.4996V13.5816C16.4996 13.7301 16.4255 13.8724 16.2935 13.9774C16.1616 14.0824 15.9826 14.1414 15.7959 14.1414H4.53668C4.35004 14.1414 4.17105 14.0824 4.03908 13.9774C3.90711 13.8724 3.83297 13.7301 3.83297 13.5816V11.3426H1.01816C0.831523 11.3426 0.652533 11.2836 0.520563 11.1786C0.388593 11.0736 0.314453 10.9312 0.314453 10.7828V5.18515C0.314453 4.25944 1.31371 3.50585 2.54256 3.50585H3.83297V1.2668C3.83297 1.11834 3.90711 0.975959 4.03908 0.870983C4.17105 0.766006 4.35004 0.707031 4.53668 0.707031H15.7959C15.9826 0.707031 16.1616 0.766006 16.2935 0.870983C16.4255 0.975959 16.4996 1.11834 16.4996 1.2668V3.50585H17.7901C19.0189 3.50585 20.0182 4.25944 20.0182 5.18515ZM5.24038 3.50585H15.0922V1.82656H5.24038V3.50585ZM15.0922 9.66326H5.24038V13.0218H15.0922V9.66326ZM16.4996 6.58456C16.4996 6.41849 16.4377 6.25615 16.3217 6.11807C16.2058 5.98 16.0409 5.87238 15.848 5.80882C15.6551 5.74527 15.4429 5.72865 15.2382 5.76104C15.0334 5.79344 14.8453 5.87341 14.6977 5.99084C14.5501 6.10826 14.4495 6.25787 14.4088 6.42075C14.3681 6.58362 14.389 6.75245 14.4689 6.90588C14.5488 7.0593 14.6841 7.19044 14.8576 7.2827C15.0312 7.37496 15.2353 7.4242 15.4441 7.4242C15.724 7.4242 15.9925 7.33574 16.1905 7.17828C16.3884 7.02081 16.4996 6.80724 16.4996 6.58456Z" fill="#404040"/>
</svg>
