<svg width="16" height="16" viewBox="0 0 16 16" fill="none" xmlns="http://www.w3.org/2000/svg">
<path d="M15.7365 14.4796L12.2229 10.9646C13.2764 9.59178 13.7682 7.86967 13.5987 6.14758C13.4291 4.42548 12.6108 2.83237 11.3098 1.6914C10.0087 0.550431 8.32237 -0.0529518 6.59279 0.0036505C4.86322 0.0602528 3.21993 0.772602 1.99629 1.99619C0.772637 3.21978 0.0602556 4.86299 0.00365067 6.59249C-0.0529543 8.32198 0.550456 10.0083 1.69148 11.3092C2.8325 12.6102 4.42569 13.4285 6.14786 13.598C7.87003 13.7676 9.59223 13.2758 10.9651 12.2223L14.4817 15.7395C14.5643 15.8221 14.6623 15.8876 14.7703 15.9323C14.8782 15.977 14.9938 16 15.1106 16C15.2274 16 15.3431 15.977 15.451 15.9323C15.5589 15.8876 15.6569 15.8221 15.7395 15.7395C15.8221 15.6569 15.8876 15.5589 15.9323 15.451C15.977 15.3431 16 15.2274 16 15.1106C16 14.9939 15.977 14.8782 15.9323 14.7703C15.8876 14.6624 15.8221 14.5644 15.7395 14.4818L15.7365 14.4796ZM1.79063 6.82147C1.79063 5.82645 2.0857 4.85377 2.63853 4.02644C3.19136 3.19911 3.97712 2.55428 4.89644 2.1735C5.81577 1.79272 6.82736 1.69309 7.80331 1.88721C8.77926 2.08133 9.67573 2.56048 10.3793 3.26407C11.083 3.96766 11.5621 4.86408 11.7563 5.83998C11.9504 6.81589 11.8508 7.82744 11.47 8.74672C11.0892 9.666 10.4443 10.4517 9.61694 11.0045C8.78957 11.5573 7.81685 11.8524 6.82178 11.8524C5.48786 11.851 4.20896 11.3205 3.26573 10.3774C2.32251 9.43417 1.792 8.15533 1.79063 6.82147Z" fill="#ADAEBC"/>
</svg>
