<svg width="38" height="30" viewBox="0 0 38 30" fill="none" xmlns="http://www.w3.org/2000/svg">
<g clip-path="url(#clip0_152_116)">
<path d="M8.9375 28.125C4.2793 28.125 0.5 24.3457 0.5 19.6875C0.5 16.0078 2.85547 12.8789 6.13672 11.7246C6.13086 11.5664 6.125 11.4082 6.125 11.25C6.125 6.07031 10.3203 1.875 15.5 1.875C18.9746 1.875 22.0039 3.76172 23.627 6.57422C24.5176 5.97656 25.5957 5.625 26.75 5.625C29.8555 5.625 32.375 8.14453 32.375 11.25C32.375 11.9648 32.2402 12.6445 32 13.2773C35.4219 13.9688 38 16.998 38 20.625C38 24.7676 34.6426 28.125 30.5 28.125H8.9375ZM13.5664 15.4102C13.0156 15.9609 13.0156 16.8516 13.5664 17.3965C14.1172 17.9414 15.0078 17.9473 15.5527 17.3965L17.8379 15.1113V22.9688C17.8379 23.748 18.4648 24.375 19.2441 24.375C20.0234 24.375 20.6504 23.748 20.6504 22.9688V15.1113L22.9355 17.3965C23.4863 17.9473 24.377 17.9473 24.9219 17.3965C25.4668 16.8457 25.4727 15.9551 24.9219 15.4102L20.2344 10.7227C19.6836 10.1719 18.793 10.1719 18.248 10.7227L13.5605 15.4102H13.5664Z" fill="#A3A3A3"/>
</g>
<defs>
<clipPath id="clip0_152_116">
<path d="M0.5 0H38V30H0.5V0Z" fill="white"/>
</clipPath>
</defs>
</svg>
